<?xml version="1.0" encoding="UTF-8" standalone="no"?>
<!DOCTYPE svg PUBLIC "-//W3C//DTD SVG 1.1//EN"
 "http://www.w3.org/Graphics/SVG/1.1/DTD/svg11.dtd">
<!-- Generated by graphviz version 12.2.1 (20241206.2353)
 -->
<!-- Title: LibICal::VComponent Pages: 1 -->
<svg width="256pt" height="408pt"
 viewBox="0.00 0.00 256.00 408.00" xmlns="http://www.w3.org/2000/svg" xmlns:xlink="http://www.w3.org/1999/xlink">

<svg id="main" version="1.1" xmlns="http://www.w3.org/2000/svg" xmlns:xlink="http://www.w3.org/1999/xlink" xml:space="preserve">

<style type="text/css"><![CDATA[
.node, .edge {opacity: 0.7;}
.node.selected, .edge.selected {opacity: 1;}
.edge:hover path { stroke: red; }
.edge:hover polygon { stroke: red; fill: red; }
]]></style>
<script type="application/ecmascript" xlink:href="svg.min.js"/>
<svg id="graph" class="graph">
<g id="graph0" class="graph" transform="scale(1 1) rotate(0) translate(4 404)">
<title>LibICal::VComponent</title>
<!-- Node1 -->
<g id="Node000001" class="node">
<title>Node1</title>
<g id="a_Node000001"><a xlink:title="A class wrapping the libical icalcomponent functions.">
<polygon fill="#999999" stroke="#666666" points="109.75,-210 0,-210 0,-190 109.75,-190 109.75,-210"/>
<text text-anchor="middle" x="54.88" y="-196.5" font-family="Helvetica,sans-Serif" font-size="10.00">LibICal::VComponent</text>
</a>
</g>
</g>
<!-- Node2 -->
<g id="Node000002" class="node">
<title>Node2</title>
<g id="a_Node000002"><a xlink:href="classLibICal_1_1VAgenda.html" target="_top" xlink:title=" ">
<polygon fill="white" stroke="#bfbfbf" points="242.38,-400 151.38,-400 151.38,-380 242.38,-380 242.38,-400"/>
<text text-anchor="middle" x="196.88" y="-386.5" font-family="Helvetica,sans-Serif" font-size="10.00">LibICal::VAgenda</text>
</a>
</g>
</g>
<!-- Node1&#45;&gt;Node2 -->
<g id="edge1_Node000001_Node000002" class="edge">
<title>Node1&#45;&gt;Node2</title>
<g id="a_edge1_Node000001_Node000002"><a xlink:title=" ">
<path fill="none" stroke="#63b8ff" d="M61.72,-221.54C72.49,-257.38 98.8,-329.44 145.75,-371 149.58,-374.39 154.08,-377.2 158.78,-379.53"/>
<polygon fill="#63b8ff" stroke="#63b8ff" points="65.08,-220.58 58.96,-211.93 58.35,-222.51 65.08,-220.58"/>
</a>
</g>
</g>
<!-- Node3 -->
<g id="Node000003" class="node">
<title>Node3</title>
<g id="a_Node000003"><a xlink:href="classLibICal_1_1VAlarm.html" target="_top" xlink:title=" ">
<polygon fill="white" stroke="#bfbfbf" points="238.62,-362 155.12,-362 155.12,-342 238.62,-342 238.62,-362"/>
<text text-anchor="middle" x="196.88" y="-348.5" font-family="Helvetica,sans-Serif" font-size="10.00">LibICal::VAlarm</text>
</a>
</g>
</g>
<!-- Node1&#45;&gt;Node3 -->
<g id="edge2_Node000001_Node000003" class="edge">
<title>Node1&#45;&gt;Node3</title>
<g id="a_edge2_Node000001_Node000003"><a xlink:title=" ">
<path fill="none" stroke="#63b8ff" d="M64.71,-220.36C78.21,-249.23 106.59,-302.01 145.75,-333 150.06,-336.41 155.04,-339.25 160.16,-341.62"/>
<polygon fill="#63b8ff" stroke="#63b8ff" points="68.07,-219.28 60.76,-211.61 61.69,-222.16 68.07,-219.28"/>
</a>
</g>
</g>
<!-- Node4 -->
<g id="Node000004" class="node">
<title>Node4</title>
<g id="a_Node000004"><a xlink:href="classLibICal_1_1VCalendar.html" target="_top" xlink:title=" ">
<polygon fill="white" stroke="#bfbfbf" points="246.12,-324 147.62,-324 147.62,-304 246.12,-304 246.12,-324"/>
<text text-anchor="middle" x="196.88" y="-310.5" font-family="Helvetica,sans-Serif" font-size="10.00">LibICal::VCalendar</text>
</a>
</g>
</g>
<!-- Node1&#45;&gt;Node4 -->
<g id="edge3_Node000001_Node000004" class="edge">
<title>Node1&#45;&gt;Node4</title>
<g id="a_edge3_Node000001_Node000004"><a xlink:title=" ">
<path fill="none" stroke="#63b8ff" d="M69.83,-219.32C85.99,-240.46 114.43,-274.13 145.75,-295 150.71,-298.3 156.32,-301.14 161.95,-303.54"/>
<polygon fill="#63b8ff" stroke="#63b8ff" points="72.81,-217.45 64.02,-211.53 67.19,-221.63 72.81,-217.45"/>
</a>
</g>
</g>
<!-- Node5 -->
<g id="Node000005" class="node">
<title>Node5</title>
<g id="a_Node000005"><a xlink:href="classLibICal_1_1VEvent.html" target="_top" xlink:title=" ">
<polygon fill="white" stroke="#bfbfbf" points="239.38,-286 154.38,-286 154.38,-266 239.38,-266 239.38,-286"/>
<text text-anchor="middle" x="196.88" y="-272.5" font-family="Helvetica,sans-Serif" font-size="10.00">LibICal::VEvent</text>
</a>
</g>
</g>
<!-- Node1&#45;&gt;Node5 -->
<g id="edge4_Node000001_Node000005" class="edge">
<title>Node1&#45;&gt;Node5</title>
<g id="a_edge4_Node000001_Node000005"><a xlink:title=" ">
<path fill="none" stroke="#63b8ff" d="M79.29,-216.71C96.99,-228.87 122.19,-245.21 145.75,-257 151.91,-260.08 158.7,-262.97 165.23,-265.52"/>
<polygon fill="#63b8ff" stroke="#63b8ff" points="81.73,-214.15 71.53,-211.3 77.73,-219.89 81.73,-214.15"/>
</a>
</g>
</g>
<!-- Node6 -->
<g id="Node000006" class="node">
<title>Node6</title>
<g id="a_Node000006"><a xlink:href="classLibICal_1_1VFreeBusy.html" target="_top" xlink:title=" ">
<polygon fill="white" stroke="#bfbfbf" points="247.62,-248 146.12,-248 146.12,-228 247.62,-228 247.62,-248"/>
<text text-anchor="middle" x="196.88" y="-234.5" font-family="Helvetica,sans-Serif" font-size="10.00">LibICal::VFreeBusy</text>
</a>
</g>
</g>
<!-- Node1&#45;&gt;Node6 -->
<g id="edge5_Node000001_Node000006" class="edge">
<title>Node1&#45;&gt;Node6</title>
<g id="a_edge5_Node000001_Node000006"><a xlink:title=" ">
<path fill="none" stroke="#63b8ff" d="M105.41,-213.45C122.48,-218.08 141.32,-223.19 157.37,-227.55"/>
<polygon fill="#63b8ff" stroke="#63b8ff" points="106.53,-210.12 95.96,-210.88 104.7,-216.88 106.53,-210.12"/>
</a>
</g>
</g>
<!-- Node7 -->
<g id="Node000007" class="node">
<title>Node7</title>
<g id="a_Node000007"><a xlink:href="classLibICal_1_1VJournal.html" target="_top" xlink:title=" ">
<polygon fill="white" stroke="#bfbfbf" points="242.38,-210 151.38,-210 151.38,-190 242.38,-190 242.38,-210"/>
<text text-anchor="middle" x="196.88" y="-196.5" font-family="Helvetica,sans-Serif" font-size="10.00">LibICal::VJournal</text>
</a>
</g>
</g>
<!-- Node1&#45;&gt;Node7 -->
<g id="edge6_Node000001_Node000007" class="edge">
<title>Node1&#45;&gt;Node7</title>
<g id="a_edge6_Node000001_Node000007"><a xlink:title=" ">
<path fill="none" stroke="#63b8ff" d="M121.25,-200C131.31,-200 141.49,-200 150.96,-200"/>
<polygon fill="#63b8ff" stroke="#63b8ff" points="121.52,-196.5 111.52,-200 121.52,-203.5 121.52,-196.5"/>
</a>
</g>
</g>
<!-- Node8 -->
<g id="Node000008" class="node">
<title>Node8</title>
<g id="a_Node000008"><a xlink:href="classLibICal_1_1VQuery.html" target="_top" xlink:title=" ">
<polygon fill="white" stroke="#bfbfbf" points="239.75,-172 154,-172 154,-152 239.75,-152 239.75,-172"/>
<text text-anchor="middle" x="196.88" y="-158.5" font-family="Helvetica,sans-Serif" font-size="10.00">LibICal::VQuery</text>
</a>
</g>
</g>
<!-- Node1&#45;&gt;Node8 -->
<g id="edge7_Node000001_Node000008" class="edge">
<title>Node1&#45;&gt;Node8</title>
<g id="a_edge7_Node000001_Node000008"><a xlink:title=" ">
<path fill="none" stroke="#63b8ff" d="M105.41,-186.55C122.48,-181.92 141.32,-176.81 157.37,-172.45"/>
<polygon fill="#63b8ff" stroke="#63b8ff" points="104.7,-183.12 95.96,-189.12 106.53,-189.88 104.7,-183.12"/>
</a>
</g>
</g>
<!-- Node9 -->
<g id="Node000009" class="node">
<title>Node9</title>
<g id="a_Node000009"><a xlink:href="classLibICal_1_1VTimezone.html" target="_top" xlink:title=" ">
<polygon fill="white" stroke="#bfbfbf" points="248,-134 145.75,-134 145.75,-114 248,-114 248,-134"/>
<text text-anchor="middle" x="196.88" y="-120.5" font-family="Helvetica,sans-Serif" font-size="10.00">LibICal::VTimezone</text>
</a>
</g>
</g>
<!-- Node1&#45;&gt;Node9 -->
<g id="edge8_Node000001_Node000009" class="edge">
<title>Node1&#45;&gt;Node9</title>
<g id="a_edge8_Node000001_Node000009"><a xlink:title=" ">
<path fill="none" stroke="#63b8ff" d="M79.29,-183.29C96.99,-171.13 122.19,-154.79 145.75,-143 151.91,-139.92 158.7,-137.03 165.23,-134.48"/>
<polygon fill="#63b8ff" stroke="#63b8ff" points="77.73,-180.11 71.53,-188.7 81.73,-185.85 77.73,-180.11"/>
</a>
</g>
</g>
<!-- Node10 -->
<g id="Node000010" class="node">
<title>Node10</title>
<g id="a_Node000010"><a xlink:href="classLibICal_1_1VToDo.html" target="_top" xlink:title=" ">
<polygon fill="white" stroke="#bfbfbf" points="238.25,-96 155.5,-96 155.5,-76 238.25,-76 238.25,-96"/>
<text text-anchor="middle" x="196.88" y="-82.5" font-family="Helvetica,sans-Serif" font-size="10.00">LibICal::VToDo</text>
</a>
</g>
</g>
<!-- Node1&#45;&gt;Node10 -->
<g id="edge9_Node000001_Node000010" class="edge">
<title>Node1&#45;&gt;Node10</title>
<g id="a_edge9_Node000001_Node000010"><a xlink:title=" ">
<path fill="none" stroke="#63b8ff" d="M69.83,-180.68C85.99,-159.54 114.43,-125.87 145.75,-105 150.71,-101.7 156.32,-98.86 161.95,-96.46"/>
<polygon fill="#63b8ff" stroke="#63b8ff" points="67.19,-178.37 64.02,-188.47 72.81,-182.55 67.19,-178.37"/>
</a>
</g>
</g>
<!-- Node11 -->
<g id="Node000011" class="node">
<title>Node11</title>
<g id="a_Node000011"><a xlink:href="classLibICal_1_1XDaylight.html" target="_top" xlink:title=" ">
<polygon fill="white" stroke="#bfbfbf" points="244.62,-58 149.12,-58 149.12,-38 244.62,-38 244.62,-58"/>
<text text-anchor="middle" x="196.88" y="-44.5" font-family="Helvetica,sans-Serif" font-size="10.00">LibICal::XDaylight</text>
</a>
</g>
</g>
<!-- Node1&#45;&gt;Node11 -->
<g id="edge10_Node000001_Node000011" class="edge">
<title>Node1&#45;&gt;Node11</title>
<g id="a_edge10_Node000001_Node000011"><a xlink:title=" ">
<path fill="none" stroke="#63b8ff" d="M64.71,-179.64C78.21,-150.77 106.59,-97.99 145.75,-67 150.06,-63.59 155.04,-60.75 160.16,-58.38"/>
<polygon fill="#63b8ff" stroke="#63b8ff" points="61.69,-177.84 60.76,-188.39 68.07,-180.72 61.69,-177.84"/>
</a>
</g>
</g>
<!-- Node12 -->
<g id="Node000012" class="node">
<title>Node12</title>
<g id="a_Node000012"><a xlink:href="classLibICal_1_1XStandard.html" target="_top" xlink:title=" ">
<polygon fill="white" stroke="#bfbfbf" points="246.12,-20 147.62,-20 147.62,0 246.12,0 246.12,-20"/>
<text text-anchor="middle" x="196.88" y="-6.5" font-family="Helvetica,sans-Serif" font-size="10.00">LibICal::XStandard</text>
</a>
</g>
</g>
<!-- Node1&#45;&gt;Node12 -->
<g id="edge11_Node000001_Node000012" class="edge">
<title>Node1&#45;&gt;Node12</title>
<g id="a_edge11_Node000001_Node000012"><a xlink:title=" ">
<path fill="none" stroke="#63b8ff" d="M61.72,-178.46C72.49,-142.62 98.8,-70.56 145.75,-29 149.58,-25.61 154.08,-22.8 158.78,-20.47"/>
<polygon fill="#63b8ff" stroke="#63b8ff" points="58.35,-177.49 58.96,-188.07 65.08,-179.42 58.35,-177.49"/>
</a>
</g>
</g>
</g>
</svg>
</svg>

<style type='text/css'>
<![CDATA[
[data-mouse-over-selected='false'] { opacity: 0.7; }
[data-mouse-over-selected='true']  { opacity: 1.0; }
]]>
</style>
<script type="application/ecmascript"><![CDATA[
document.addEventListener('DOMContentLoaded', (event) => {
  highlightEdges();
  highlightAdjacentNodes();
});
]]></script>
</svg>
